<svg version="1.1" id="Layer_1" xmlns="http://www.w3.org/2000/svg" xmlns:xlink="http://www.w3.org/1999/xlink" x="0px" y="0px"
	 width="100%" viewBox="0 0 512 512" enable-background="new 0 0 512 512" xml:space="preserve">
<path fill="#FFD700" opacity="1.000000" stroke="none" 
	d="
M1.000002,472.000000 
	C1.000000,328.976685 1.000000,185.953354 1.343255,42.292568 
	C4.301765,28.118031 11.377192,17.290298 22.791962,9.845819 
	C28.633171,6.036301 35.562473,3.895172 42.000000,1.000000 
	C185.023331,1.000000 328.046661,1.000000 471.707397,1.343265 
	C485.881989,4.301711 496.709595,11.377417 504.154205,22.792048 
	C507.963776,28.633183 510.104858,35.562496 513.000000,42.000000 
	C513.000000,185.023331 513.000000,328.046661 512.656738,471.707397 
	C509.814209,485.126099 503.407745,495.678619 492.684509,502.881592 
	C486.372223,507.121643 478.932587,509.683411 472.000000,513.000000 
	C328.976685,513.000000 185.953354,513.000000 42.292564,512.656738 
	C28.120531,509.691193 17.342527,502.528015 9.848965,491.198578 
	C6.006655,485.389496 3.894220,478.436188 1.000002,472.000000 
M292.291962,433.502411 
	C286.101868,427.508575 279.911743,421.514740 273.167603,414.984406 
	C275.242920,413.199219 276.703064,412.098846 277.983856,410.818970 
	C318.652252,370.177582 359.422516,329.636566 399.821747,288.729156 
	C405.546356,282.932526 410.632080,275.875305 413.987274,268.481995 
	C425.841461,242.360641 417.327393,209.773956 394.060211,188.640411 
	C367.489441,164.506241 324.937408,160.577103 296.119995,191.378922 
	C260.384827,229.574799 222.869781,266.109253 185.918945,303.157288 
	C182.798798,306.285675 178.393448,308.949066 174.137497,309.979462 
	C159.495789,313.524323 142.393280,302.381836 136.962753,286.421478 
	C133.497864,276.238220 135.048233,267.433136 143.037811,259.494049 
	C186.421677,216.384186 229.602646,173.070114 272.860016,129.832886 
	C273.999359,128.694046 275.213287,127.629784 277.945251,125.083389 
	C284.927612,132.626816 291.710480,139.954742 298.511719,147.302505 
	C298.511719,124.109383 298.511719,101.176270 298.511719,78.263039 
	C275.210297,78.263039 252.212830,78.263039 227.792374,78.263039 
	C235.019012,85.238457 241.324036,91.324295 248.607773,98.354836 
	C246.637894,99.782036 244.819214,100.764587 243.416916,102.164284 
	C200.011230,145.488876 156.667236,188.875259 113.255707,232.193985 
	C105.412056,240.020889 99.812881,249.079285 96.982002,259.801392 
	C89.211342,289.233429 102.750679,321.637909 129.943985,339.279724 
	C155.631546,355.944611 192.056427,356.813782 216.077393,330.526581 
	C222.364288,323.646576 229.389160,317.446716 235.936356,310.797821 
	C266.804474,279.450256 297.667877,248.097733 328.419983,216.636551 
	C333.750519,211.183121 339.946594,208.850327 347.342743,209.799774 
	C361.949646,211.674881 371.692688,219.988449 376.874023,233.470154 
	C380.793579,243.668716 379.084808,252.716309 370.919281,260.823181 
	C330.118286,301.330933 289.549133,342.072144 248.892776,382.725586 
	C247.747696,383.870514 246.538849,384.951752 244.400436,386.966522 
	C237.742813,380.061371 231.242722,373.319611 224.558334,366.386688 
	C224.558334,389.826965 224.558334,412.854065 224.558334,436.126831 
	C246.421051,436.126831 267.910522,436.127655 289.400024,436.124634 
	C290.565796,436.124481 291.731567,436.092224 292.897339,436.074921 
	C292.883636,435.392853 292.869904,434.710815 292.291962,433.502411 
z"/>
<path fill="#47704C" opacity="1.000000" stroke="none" 
	d="
M472.468658,513.000000 
	C478.932587,509.683411 486.372223,507.121643 492.684509,502.881592 
	C503.407745,495.678619 509.814209,485.126099 512.656738,472.172424 
	C513.000000,485.593353 513.000000,499.186676 513.000000,513.000000 
	C499.646576,513.000000 486.291962,513.000000 472.468658,513.000000 
z"/>
<path fill="#47704C" opacity="1.000000" stroke="none" 
	d="
M1.000002,472.468658 
	C3.894220,478.436188 6.006655,485.389496 9.848965,491.198578 
	C17.342527,502.528015 28.120531,509.691193 41.827553,512.656738 
	C28.406666,513.000000 14.813334,513.000000 1.000000,513.000000 
	C1.000000,499.646576 1.000000,486.291962 1.000002,472.468658 
z"/>
<path fill="#47704C" opacity="1.000000" stroke="none" 
	d="
M41.531342,1.000000 
	C35.562473,3.895172 28.633171,6.036301 22.791962,9.845819 
	C11.377192,17.290298 4.301765,28.118031 1.343255,41.827553 
	C1.000000,28.406666 1.000000,14.813334 1.000000,1.000000 
	C14.353423,1.000000 27.708054,1.000000 41.531342,1.000000 
z"/>
<path fill="#47704C" opacity="1.000000" stroke="none" 
	d="
M513.000000,41.531342 
	C510.104858,35.562496 507.963776,28.633183 504.154205,22.792048 
	C496.709595,11.377417 485.881989,4.301711 472.172424,1.343265 
	C485.593353,1.000000 499.186676,1.000000 513.000000,1.000000 
	C513.000000,14.353423 513.000000,27.708054 513.000000,41.531342 
z"/>
<path fill="#010100" opacity="1.000000" stroke="none" 
	d="
M292.574066,433.765564 
	C292.869904,434.710815 292.883636,435.392853 292.897339,436.074921 
	C291.731567,436.092224 290.565796,436.124481 289.400024,436.124634 
	C267.910522,436.127655 246.421051,436.126831 224.558334,436.126831 
	C224.558334,412.854065 224.558334,389.826965 224.558334,366.386688 
	C231.242722,373.319611 237.742813,380.061371 244.400436,386.966522 
	C246.538849,384.951752 247.747696,383.870514 248.892776,382.725586 
	C289.549133,342.072144 330.118286,301.330933 370.919281,260.823181 
	C379.084808,252.716309 380.793579,243.668716 376.874023,233.470154 
	C371.692688,219.988449 361.949646,211.674881 347.342743,209.799774 
	C339.946594,208.850327 333.750519,211.183121 328.419983,216.636551 
	C297.667877,248.097733 266.804474,279.450256 235.936356,310.797821 
	C229.389160,317.446716 222.364288,323.646576 216.077393,330.526581 
	C192.056427,356.813782 155.631546,355.944611 129.943985,339.279724 
	C102.750679,321.637909 89.211342,289.233429 96.982002,259.801392 
	C99.812881,249.079285 105.412056,240.020889 113.255707,232.193985 
	C156.667236,188.875259 200.011230,145.488876 243.416916,102.164284 
	C244.819214,100.764587 246.637894,99.782036 248.607773,98.354836 
	C241.324036,91.324295 235.019012,85.238457 227.792374,78.263039 
	C252.212830,78.263039 275.210297,78.263039 298.511719,78.263039 
	C298.511719,101.176270 298.511719,124.109383 298.511719,147.302505 
	C291.710480,139.954742 284.927612,132.626816 277.945251,125.083389 
	C275.213287,127.629784 273.999359,128.694046 272.860016,129.832886 
	C229.602646,173.070114 186.421677,216.384186 143.037811,259.494049 
	C135.048233,267.433136 133.497864,276.238220 136.962753,286.421478 
	C142.393280,302.381836 159.495789,313.524323 174.137497,309.979462 
	C178.393448,308.949066 182.798798,306.285675 185.918945,303.157288 
	C222.869781,266.109253 260.384827,229.574799 296.119995,191.378922 
	C324.937408,160.577103 367.489441,164.506241 394.060211,188.640411 
	C417.327393,209.773956 425.841461,242.360641 413.987274,268.481995 
	C410.632080,275.875305 405.546356,282.932526 399.821747,288.729156 
	C359.422516,329.636566 318.652252,370.177582 277.983856,410.818970 
	C276.703064,412.098846 275.242920,413.199219 273.167603,414.984406 
	C279.911743,421.514740 286.101868,427.508575 292.574066,433.765564 
z"/>
</svg>